HIERARCHY
ROOT root
{
	OFFSET 0.000000 0.000000 0.000000
	CHANNELS 6 Xposition Yposition Zposition Zrotation Yrotation Xrotation
	JOINT lhip
	{
		OFFSET 0.058581 -0.082280 -0.017664
		CHANNELS 3 Zrotation Yrotation Xrotation
		JOINT lknee
		{
			OFFSET 0.043451 -0.386469 0.008037
			CHANNELS 3 Zrotation Yrotation Xrotation
			JOINT lankle
			{
				OFFSET -0.014790 -0.426874 -0.037428
				CHANNELS 3 Zrotation Yrotation Xrotation
				JOINT ltoe
				{
					OFFSET 0.041054 -0.060286 0.122042
					CHANNELS 3 Zrotation Yrotation Xrotation
					End Site
					{
						OFFSET 0.000000 0.000000 0.000000
					}
				}
			}
		}
	}
	JOINT rhip
	{
		OFFSET -0.060310 -0.090513 -0.013543
		CHANNELS 3 Zrotation Yrotation Xrotation
		JOINT rknee
		{
			OFFSET -0.043257 -0.383688 -0.004843
			CHANNELS 3 Zrotation Yrotation Xrotation
			JOINT rankle
			{
				OFFSET 0.019056 -0.420046 -0.034562
				CHANNELS 3 Zrotation Yrotation Xrotation
				JOINT rtoe
				{
					OFFSET -0.034840 -0.062106 0.130323
					CHANNELS 3 Zrotation Yrotation Xrotation
					End Site
					{
						OFFSET 0.000000 0.000000 0.000000
					}
				}
			}
		}
	}
	JOINT lowerback
	{
		OFFSET 0.004439 0.124404 -0.038385
		CHANNELS 3 Zrotation Yrotation Xrotation
		JOINT upperback
		{
			OFFSET 0.004488 0.137956 0.026820
			CHANNELS 3 Zrotation Yrotation Xrotation
			JOINT chest
			{
				OFFSET -0.002265 0.056032 0.002855
				CHANNELS 3 Zrotation Yrotation Xrotation
				JOINT lowerneck
				{
					OFFSET -0.013390 0.211636 -0.033468
					CHANNELS 3 Zrotation Yrotation Xrotation
					JOINT upperneck
					{
						OFFSET 0.010113 0.088937 0.050410
						CHANNELS 3 Zrotation Yrotation Xrotation
						End Site
						{
							OFFSET 0.000000 0.000000 0.000000
						}
					}
				}
				JOINT lclavicle
				{
					OFFSET 0.071702 0.114000 -0.018898
					CHANNELS 3 Zrotation Yrotation Xrotation
					JOINT lshoulder
					{
						OFFSET 0.122921 0.045205 -0.019046
						CHANNELS 3 Zrotation Yrotation Xrotation
						JOINT lelbow
						{
							OFFSET 0.255332 -0.015649 -0.022946
							CHANNELS 3 Zrotation Yrotation Xrotation
							JOINT lwrist
							{
								OFFSET 0.265709 0.012698 -0.007375
								CHANNELS 3 Zrotation Yrotation Xrotation
								End Site
								{
									OFFSET 0.000000 0.000000 0.000000
								}
							}
						}
					}
				}
				JOINT rclavicle
				{
					OFFSET -0.082954 0.112472 -0.023707
					CHANNELS 3 Zrotation Yrotation Xrotation
					JOINT rshoulder
					{
						OFFSET -0.113228 0.046853 -0.008472
						CHANNELS 3 Zrotation Yrotation Xrotation
						JOINT relbow
						{
							OFFSET -0.260127 -0.014369 -0.031269
							CHANNELS 3 Zrotation Yrotation Xrotation
							JOINT rwrist
							{
								OFFSET -0.269108 0.006794 -0.006027
								CHANNELS 3 Zrotation Yrotation Xrotation
								End Site
								{
									OFFSET 0.000000 0.000000 0.000000
								}
							}
						}
					}
				}
			}
		}
	}
}
MOTION
Frames: 7
Frame Time: 0.033333
-1.447707 0.042522 0.906830 102.714485 -2.579893 92.294285 4.366909 -2.181529 -12.325976 -17.258141 -17.398719 38.549049 5.511234 10.160935 -32.423046 0.000000 -0.000000 0.000000 -8.254559 1.303314 -21.621782 9.770770 13.523893 63.083913 5.686903 -4.786298 -27.477104 0.000000 -0.000000 0.000000 -0.842910 -2.137307 15.756702 2.438642 -0.348673 -4.973315 -2.099005 -1.069874 -0.415905 3.461270 -1.820458 -23.182730 -5.043596 -10.721340 7.115215 -29.579758 14.676248 -8.646452 -24.195785 -1.395716 -10.970460 26.929872 -26.363989 -40.909565 -8.949474 -6.908735 -22.867881 30.864717 -9.374859 -12.751167 25.321471 -1.031738 -4.277519 -38.741672 18.520289 -38.819966 31.988581 3.079180 2.823417 
-1.424465 0.044861 0.919153 102.152565 -2.315805 92.188800 5.045381 -2.215144 -7.773451 -16.307564 -18.681634 33.189772 4.480780 9.943626 -31.263676 0.000000 -0.000000 0.000000 -8.981846 1.394238 -23.174728 8.495651 11.283059 61.018368 6.253956 -5.945897 -26.359367 0.000000 -0.000000 0.000000 -0.744684 -2.732640 14.164162 2.599992 0.053567 -3.349157 -1.921680 -1.419387 -1.120440 3.259532 -1.182865 -22.470949 -6.355485 -11.620328 7.109944 -27.451902 14.790288 -7.934668 -19.702393 -0.516279 -12.178744 28.342808 -29.343326 -35.492672 -33.620407 -10.287330 -17.120284 29.136752 -9.706317 -12.423678 23.052323 -1.325196 -5.209166 -40.188620 20.198949 -33.950127 52.834924 -1.783618 4.067961 
-1.394189 0.044173 0.944623 101.387242 -1.239870 92.195539 6.094075 -1.178120 -0.789608 -12.892982 -22.444826 23.628454 2.276213 9.443277 -26.278522 0.000000 -0.000000 0.000000 -8.816458 0.504566 -22.629088 6.894144 9.003689 52.703122 6.279478 -8.084738 -22.808482 0.000000 -0.000000 0.000000 0.529169 -3.901885 10.851409 2.784520 0.160480 -1.984435 -1.525729 -1.240633 -1.433471 1.993199 -1.873901 -20.304366 -7.044187 -10.877239 7.153350 -24.595299 15.016806 -7.142110 -17.659240 -0.839502 -12.947221 30.867536 -30.004293 -37.812420 -37.945746 -10.534579 -18.996151 26.956161 -9.474880 -11.732541 20.837930 -1.125221 -6.081346 -41.901463 21.141950 -33.642513 56.323017 -3.996685 4.046497 
-1.359317 0.040360 0.975690 101.022073 -0.729937 92.442617 7.033388 0.080997 4.669875 -9.356619 -24.280952 15.483518 -1.842287 7.608068 -17.704564 0.000000 -0.000000 0.000000 -9.225324 -0.661534 -20.815894 5.223973 5.522238 41.151429 6.873838 -9.855986 -18.055049 0.000000 -0.000000 0.000000 1.336159 -4.401992 7.708511 3.050145 0.094108 -2.335840 -0.940304 -1.510275 -1.838412 0.478655 -1.450007 -18.208043 -7.932477 -9.334237 9.436387 -22.198037 15.427799 -7.226778 -15.076836 -2.052724 -13.457286 30.118916 -29.957411 -38.610021 -29.050332 -11.096795 -17.357916 25.489389 -10.145540 -11.728336 17.545853 -0.043541 -6.843710 -41.585420 21.815500 -34.739588 48.105018 -1.840175 5.602186 
-1.324574 0.034073 1.006533 101.298745 -0.784047 92.177404 7.769311 0.200388 6.760221 -8.287189 -23.151184 13.074009 -4.942993 6.110679 -6.989889 0.000000 -0.000000 0.000000 -9.505771 -2.298038 -17.334455 4.518152 3.632930 28.786222 7.396164 -10.569096 -11.165080 0.000000 -0.000000 0.000000 1.661351 -4.325367 5.657233 3.281653 -0.817323 -3.088718 -0.389306 -1.833012 -2.286888 -0.898822 -1.717880 -16.330400 -7.635985 -7.235619 9.899176 -19.821699 15.291135 -6.754061 -13.687802 -3.782451 -13.142845 26.227202 -28.748385 -39.214167 -9.379259 -12.421061 -16.549886 23.879770 -9.846211 -11.963892 15.262633 -0.031393 -6.361949 -39.662671 22.355470 -36.402841 29.744863 3.289192 7.552505 
-1.290794 0.026146 1.031578 101.121566 -1.227946 91.504943 7.929962 0.405980 6.588538 -8.595542 -21.171524 14.917595 -8.000241 5.477869 2.697978 0.000000 -0.000000 0.000000 -9.311042 -3.648229 -14.261889 4.615593 5.214151 20.565392 7.064558 -9.220991 -4.759819 0.000000 -0.000000 0.000000 1.622649 -3.810161 4.021800 3.371622 -1.659443 -2.391261 -0.259351 -1.624108 -2.815081 -1.690235 -2.035841 -16.199804 -6.851287 -6.500489 9.073847 -20.628321 13.435416 -6.672213 -12.000981 -4.197808 -13.192953 26.561559 -28.515968 -41.049573 4.492422 -13.965787 -14.413693 24.898704 -8.930980 -9.556894 12.817051 -0.297614 -7.419651 -39.717161 22.632139 -39.248961 12.776654 8.947246 9.531472 
-1.259572 0.018269 1.046325 100.075615 -1.418232 90.950756 8.053724 0.504789 6.002021 -9.827480 -21.608029 17.555529 -6.984699 5.747169 5.074782 0.000000 -0.000000 0.000000 -8.585703 -4.073650 -13.161960 6.003244 7.918580 18.657053 7.144197 -7.269759 -2.308507 0.000000 -0.000000 0.000000 2.000190 -3.280593 2.741865 3.309730 -1.345116 -2.268411 -0.497400 -1.429245 -2.769433 -1.805505 -2.659534 -15.978548 -6.640278 -6.041776 8.352558 -21.562199 13.228742 -6.036887 -13.618416 -4.352275 -11.895361 29.140258 -30.380533 -40.712784 16.112869 -12.226200 -15.208186 25.725728 -8.477583 -7.625627 12.909354 -0.201917 -7.489287 -40.254008 22.648106 -40.823593 -5.870513 13.349929 9.552447 
